# xmcd
#
# Track frame offsets:
#	150
#	16650
#	32025
#	48075
#	66288
#	82690
#	97165
#	114026
#	132993
#	150693
#	167193
#	182568
#	198618
#	216831
#	233233
#	247708
#	264569
#	283536
#
# Disc length: 4016
#
# Revision: 2
# Processed by: cddbd v1.5.2PL0 Copyright (c) Steve Scherf et al.
# Submitted via: kJams Pro (development) 1.0patch49.33
#
DISCID=e90fae12
DTITLE=Various Artist - Pop Hits Monthly 0306-c
DYEAR=2003
DGENRE=karaoke
TTITLE0=Brad Paisley - Celebrity
TTITLE1=Brian McComas - 99.9% Sure
TTITLE2=Clint Black - Iraq And Roll
TTITLE3=Darryl Worley - Have You Forgotten
TTITLE4=Lonestar - My Front Porch Looking In
TTITLE5=Tracy Byrd - The Truth About Men
TTITLE6=Terri Clark - Three Mississippi
TTITLE7=Trace Adkins - Then They Do
TTITLE8=LeAnn Rimes - Suddenly
TTITLE9=Brad Paisley - Celebrity (Vocal)
TTITLE10=Brian McComas - 99.9% Sure (Vocal)
TTITLE11=Clint Black - Iraq And Roll (Vocal)
TTITLE12=Darryl Worley - Have You Forgotten (Vocal)
TTITLE13=Lonestar - My Front Porch Looking In (Vocal)
TTITLE14=Tracy Byrd - The Truth About Men (Vocal)
TTITLE15=Terri Clark - Three Mississippi (Vocal)
TTITLE16=Trace Adkins - Then They Do (Vocal)
TTITLE17=LeAnn Rimes - Suddenly (Vocal)
EXTD=
EXTT0=
EXTT1=
EXTT2=
EXTT3=
EXTT4=
EXTT5=
EXTT6=
EXTT7=
EXTT8=
EXTT9=
EXTT10=
EXTT11=
EXTT12=
EXTT13=
EXTT14=
EXTT15=
EXTT16=
EXTT17=
PLAYORDER=
